<svg width="48" height="48" viewBox="0 0 48 48" fill="none" xmlns="http://www.w3.org/2000/svg">
<rect width="48" height="48" rx="8" fill="#F2F2F2"/>
<path d="M22.0001 40C21.4334 40 20.9584 39.8083 20.5751 39.425C20.1917 39.0417 20.0001 38.5667 20.0001 38V26L8.05006 10.75C7.58339 10.1833 7.51672 9.58333 7.85006 8.95C8.18339 8.31667 8.70006 8 9.40006 8H38.6001C39.3001 8 39.8167 8.31667 40.1501 8.95C40.4834 9.58333 40.4167 10.1833 39.9501 10.75L28.0001 26V38C28.0001 38.5667 27.8084 39.0417 27.4251 39.425C27.0417 39.8083 26.5667 40 26.0001 40H22.0001ZM24.0001 26.2L36.0001 11H12.0001L24.0001 26.2Z" fill="#828282"/>
</svg>
