<svg width="13" height="19" viewBox="0 0 13 19" fill="none" xmlns="http://www.w3.org/2000/svg">
<path d="M0 19V17.4C0.433333 17.1333 0.825 16.8375 1.175 16.5125C1.525 16.1875 1.825 15.8417 2.075 15.475C2.325 15.1083 2.51667 14.7167 2.65 14.3C2.78333 13.8833 2.85 13.45 2.85 13C2.85 12.7833 2.8375 12.575 2.8125 12.375C2.7875 12.175 2.75 11.9667 2.7 11.75H0V10.25H1.95C1.3 9.35 0.854167 8.55417 0.6125 7.8625C0.370834 7.17083 0.25 6.46667 0.25 5.75C0.25 4.28333 0.758333 3.04167 1.775 2.025C2.79167 1.00833 4.03333 0.5 5.5 0.5C6.58333 0.5 7.5625 0.770833 8.4375 1.3125C9.3125 1.85417 9.95833 2.58333 10.375 3.5L9 4.075C8.7 3.44167 8.22917 2.9375 7.5875 2.5625C6.94583 2.1875 6.25 2 5.5 2C4.46667 2 3.58333 2.3625 2.85 3.0875C2.11667 3.8125 1.75 4.7 1.75 5.75C1.75 6.4 1.88333 7.0375 2.15 7.6625C2.41667 8.2875 2.95 9.15 3.75 10.25H8V11.75H4.225C4.275 11.9667 4.30833 12.1833 4.325 12.4C4.34167 12.6167 4.35 12.8167 4.35 13C4.35 13.8833 4.15833 14.7083 3.775 15.475C3.39167 16.2417 2.90833 16.9167 2.325 17.5H8C8.63333 17.5 9.19167 17.3333 9.675 17C10.1583 16.6667 10.5083 16.125 10.725 15.375L12.025 16.025C11.8083 17.0083 11.3042 17.75 10.5125 18.25C9.72083 18.75 8.88333 19 8 19H0Z" fill="#21052D"/>
</svg>
