<svg width="26" height="26" viewBox="0 0 26 26" fill="none" xmlns="http://www.w3.org/2000/svg">
<path d="M0.5 8.9375L1.8125 8.9375L3.6875 11.4375L11.5312 11.4375L8.3125 0.499999L10.125 0.499999L16.5625 11.4375L23.9375 11.4375C24.375 11.4375 24.7448 11.5885 25.0469 11.8906C25.349 12.1927 25.5 12.5625 25.5 13C25.5 13.4375 25.349 13.8073 25.0469 14.1094C24.7448 14.4115 24.375 14.5625 23.9375 14.5625L16.5625 14.5625L10.125 25.5L8.3125 25.5L11.5312 14.5625L3.6875 14.5625L1.8125 17.0625L0.499999 17.0625L1.65625 13L0.5 8.9375Z" fill="#828282"/>
</svg>
