<svg width="200" height="103" viewBox="0 0 200 103" fill="none" xmlns="http://www.w3.org/2000/svg">
<path d="M160.132 64.7042C150.892 64.7042 143.377 57.2083 143.377 47.9932C143.377 43.5279 145.11 39.3311 148.282 36.1771C151.452 33.0196 155.657 31.2833 160.132 31.2833C169.362 31.2833 176.876 38.7724 176.876 47.9887C176.877 57.2083 169.373 64.7042 160.132 64.7042ZM160.132 37.1359C157.223 37.1359 154.491 38.2613 152.431 40.3092C150.373 42.3639 149.241 45.0919 149.241 47.9898C149.241 53.9806 154.126 58.8517 160.131 58.8517C166.125 58.8517 171.02 53.9806 171.02 47.9943C171.013 42.0058 166.127 37.1359 160.132 37.1359Z" fill="white"/>
<path d="M79.269 64.2848C70.039 64.2848 62.5251 56.7856 62.5251 47.5738V34.647C62.5251 33.032 63.8301 31.7242 65.4507 31.7242C67.0737 31.7242 68.3888 33.032 68.3888 34.647V47.5693C68.3888 53.5556 73.2747 58.4278 79.269 58.4278C85.2735 58.4278 90.1593 53.5556 90.1593 47.5693V34.6278C90.1593 33.0094 91.4745 31.7026 93.0872 31.7026C94.7102 31.7026 96.023 33.0094 96.023 34.6278V47.5704C96.023 56.7856 88.5092 64.2848 79.269 64.2848Z" fill="white"/>
<path d="M25.5929 64.295C25.0988 64.295 24.5968 64.1726 24.1391 63.9221C22.6843 63.1209 22.1516 61.2883 22.9557 59.8365L37.6121 33.2462C38.1414 32.2829 39.159 31.6924 40.2515 31.6924C40.2606 31.6924 40.2606 31.6924 40.2606 31.6924C41.3509 31.6924 42.3673 32.2829 42.8977 33.2462L57.5825 59.8319C58.3832 61.2883 57.8528 63.1175 56.3991 63.9221C54.934 64.7177 53.0987 64.1964 52.2958 62.7401L40.2595 40.9359L28.2413 62.7344C27.6814 63.7351 26.6547 64.295 25.5929 64.295Z" fill="white"/>
<path d="M135.632 64.6475C134.899 64.6475 134.148 64.3823 133.574 63.8293L105.188 37.2617C103.979 36.1216 103.911 34.2187 105.049 33.0049C106.187 31.7945 108.098 31.7344 109.32 32.8746L137.699 59.4489C138.91 60.5913 138.967 62.4942 137.83 63.6989C137.236 64.3325 136.431 64.6475 135.632 64.6475Z" fill="white"/>
<path d="M107.269 64.6669C106.465 64.6669 105.664 64.3495 105.068 63.7171C103.93 62.5079 103.988 60.6039 105.198 59.4649L133.56 32.8565C134.767 31.7209 136.674 31.7764 137.821 32.9868C138.956 34.1904 138.903 36.0989 137.691 37.2379L109.328 63.8463C108.75 64.396 108.004 64.6669 107.269 64.6669Z" fill="white"/>
<g clip-path="url(#clip0_12_505)">
<path d="M123.935 45.1902C124.209 45.5983 124.209 46.1722 123.935 46.4102C123.799 46.5463 123.696 46.5123 123.525 46.2062C123.389 46.0362 123.218 45.8321 123.115 45.7981C123.013 45.7641 121.548 45.7981 119.882 45.8661C109.5 46.4102 103.713 47.3922 100.343 49.1861C99.3226 49.76 99.2884 49.998 100.309 49.5262C100.92 49.2541 101.125 49.2201 101.672 49.3561C102.316 49.4922 102.351 49.4922 102.487 49.0841C102.692 48.4762 103.405 48.4422 103.884 48.982C104.905 50.1 105.52 54.9461 105.451 61.0461C105.417 63.3841 105.417 63.992 105.588 63.958C106.574 63.5159 108.992 62.636 109.675 62.4659C110.832 62.1599 112.874 62.0918 113.792 62.3299C114.642 62.5339 116.073 63.1758 116.688 63.6179C117.029 63.856 117.098 63.992 117.064 64.3618C116.995 64.8719 116.79 64.8719 115.33 64.3958C113.933 63.9537 112.062 63.9197 110.188 64.3958C108.723 64.7699 105.695 65.8539 105.421 66.126C105.285 66.262 104.606 74.7 104.23 80.8001C104.093 83.5122 103.956 84.1541 103.414 84.6302C102.936 85.0723 102.393 85.1063 101.915 84.7662C101.304 84.3241 101.202 83.8182 101.27 80.8001C101.304 77.2761 101.851 69.0761 102.086 68.3662C102.12 68.2302 102.427 67.9581 102.765 67.7541C103.346 67.38 103.546 67.1419 103.312 67.1419C103.175 67.1419 101.202 68.3619 100.147 69.0718C99.6344 69.4459 98.9553 70.0198 98.6478 70.3599C98.1012 70.9337 98.0371 70.972 97.8321 70.768C97.6613 70.5979 97.6613 70.4619 97.7979 70.024C98.0371 69.3822 99.8394 67.55 101.168 66.6361C101.714 66.262 102.188 65.8922 102.222 65.7901C102.462 65.314 102.701 60.0982 102.701 56.0641V51.5241L103.042 51.7281C103.521 52.0682 103.589 51.8642 103.145 51.5241C102.329 50.8482 100.796 50.7462 98.7888 51.15C97.153 51.5241 96.4057 51.4561 96.1323 50.946C95.9615 50.6399 95.9615 50.5379 96.1665 50.1C96.6448 49.1861 99.4337 47.456 102.022 46.508C105.656 45.1222 112.43 44.102 118.148 44C121.723 43.966 123.325 44.272 123.935 45.186V45.1902Z" fill="#56CCF2"/>
<path d="M126.797 72.4981C124.174 79.6821 118.593 78.122 118.388 69.888C118.319 67.346 118.558 64.9399 119.477 58.13C120.224 52.506 120.771 50.98 121.894 51.354C122.304 51.4901 122.607 52.506 122.475 53.386C122.406 53.7941 122.27 55.656 122.133 57.5519C121.996 59.4138 121.757 62.0238 121.586 63.2778C121.176 66.7338 120.976 71.2398 121.211 72.5958C122.402 79.3378 126.045 70.7679 126.656 68.0899C127.134 65.9219 127.168 65.7859 127.437 65.7859C128.116 65.7859 127.745 69.888 126.792 72.4938L126.797 72.4981Z" fill="#56CCF2"/>
<path d="M137.282 65.6541C137.452 65.8922 137.008 66.5001 135.172 68.5022C132.11 71.9242 129.761 73.3823 128.227 72.9062C127.446 72.6341 126.626 71.7202 126.323 70.7382C125.844 69.3482 126.357 66.2322 127.412 63.8943C127.958 62.7082 128.706 62.4022 129.214 63.1843C129.453 63.5584 129.419 63.7625 129.077 65.6924C128.467 69.0463 128.531 70.8445 129.282 70.8445C129.419 70.8445 129.761 70.7425 130.064 70.6064C130.474 70.4024 134.796 67.1164 136.329 65.8284C136.807 65.4203 137.111 65.3523 137.282 65.6584V65.6541ZM128.804 60.9781C128.326 60.3362 128.736 59.0482 129.351 59.214C129.521 59.248 129.726 59.18 129.761 59.044C129.897 58.7039 130.816 58.7719 131.123 59.146C131.567 59.6221 131.465 60.162 130.884 60.7401C130.508 61.1142 130.239 61.2162 129.692 61.2162C129.316 61.2162 128.911 61.1142 128.808 60.9781H128.804Z" fill="#56CCF2"/>
<path d="M148.89 62.8443C148.787 62.9803 148.005 64.0983 147.151 65.3183L145.55 67.5543L145.379 71.9922C145.106 79.0742 144.529 81.6163 142.688 83.7842C141.633 85.0722 140.613 85.3443 139.729 84.5621C139.182 84.12 138.845 83.0701 138.845 81.9861C138.879 79.7841 140.104 75.9881 141.838 72.6681L142.996 70.3981L143.201 67.2822C143.303 65.5521 143.372 64.1323 143.337 64.0983C143.303 64.0643 143.03 64.5064 142.727 65.0802C137.35 75.3122 132.853 70.8402 136.803 64.8422C138.029 62.9803 139.562 61.7603 140.719 61.7943C141.535 61.7943 142.355 62.4702 142.522 63.2183L142.624 63.7922L143.034 63.0143C143.273 62.6062 143.444 62.0323 143.478 61.7603C143.478 61.5222 143.581 61.1481 143.683 60.9484C143.888 60.5743 144.567 60.5403 144.841 60.8803C145.114 61.2204 145.353 62.6445 145.486 64.6764L145.554 66.3725L146.951 64.5786C147.732 63.5967 148.45 62.6827 148.586 62.5807C148.894 62.3426 149.133 62.5467 148.894 62.8528L148.89 62.8443ZM141.74 64.7402C141.535 64.7062 141.228 64.5021 141.061 64.2641L140.719 63.788L140.075 64.2641C137.657 66.0282 135.582 72.09 138.951 68.77C139.43 68.2599 140.348 67.1419 140.959 66.296C141.877 64.974 142.014 64.7359 141.74 64.7359V64.7402ZM142.829 72.8381C141.979 74.2962 141.945 74.3642 140.993 78.6321C140.617 80.2602 140.446 82.5982 140.719 82.5982C140.822 82.5982 141.095 82.1561 141.33 81.6163C141.911 80.3622 142.283 78.6704 142.59 75.8223C142.761 74.2962 142.932 73.4163 143.171 72.9402C143.718 71.8902 143.444 71.8222 142.829 72.8381Z" fill="#56CCF2"/>
<path d="M160.903 66.5001C160.391 67.482 156.274 72.4641 155.561 72.9742C154.471 73.7181 153.587 73.5183 153.007 72.3961C152.631 71.6522 152.836 68.3619 153.382 65.9899C153.861 63.822 153.861 63.754 153.246 64.8039C152.293 66.5001 151.576 68.3279 150.692 71.5799C149.944 74.292 149.705 74.9338 149.364 75.2399C148.783 75.75 148.548 75.716 147.933 75.2059C147.083 74.462 146.81 73.072 147.015 70.1898C147.22 66.6318 147.66 62.6317 148.206 59.5498C148.753 56.3319 149.808 52.3318 150.282 51.7239C150.623 51.2818 151.268 51.1118 151.576 51.3838C151.849 51.6899 151.713 53.6538 151.098 57.8877C150.756 60.0217 150.282 63.9198 150.008 66.5298C149.53 71.0358 149.428 71.6479 148.68 73.4758C148.544 73.7819 148.578 73.7819 148.817 73.5778C148.988 73.4758 149.462 72.2558 149.94 70.8997C151.063 67.5458 153.139 62.9038 153.925 62.0579C154.403 61.5477 154.98 61.7178 155.287 62.4319C155.561 63.0738 155.492 64.974 155.116 70.0581L154.98 71.6862L156.274 70.3981C156.953 69.7222 158.213 68.4682 159.033 67.618C159.883 66.8061 160.668 65.9219 160.835 65.6881C161.347 64.9782 161.382 65.5861 160.903 66.5001Z" fill="#56CCF2"/>
<path d="M169.347 58.4021C169.313 58.7421 169.005 58.8442 165.943 59.35L163.457 59.7921L162.911 63.3161C162.197 67.8221 162.061 71.7882 162.535 73.412C164.239 79.342 166.891 69.1441 167.096 68.1919C167.506 66.4278 167.878 64.906 167.946 64.7699C168.288 64.1578 168.322 65.28 168.083 67.8518C167.809 71.0698 167.472 72.5278 166.754 74.0199C164.781 78.088 161.646 77.3739 160.557 73.6118C159.81 71.1718 159.878 68.0219 160.728 63.0398C160.933 61.8198 161.07 60.7698 161.104 60.7018C161.104 60.5998 161.412 60.4978 161.783 60.4638C162.159 60.3957 162.428 60.2937 162.398 60.1917C162.296 60.0217 161.036 60.1237 158.96 60.4978C157.055 60.8378 156.304 60.8719 156.167 60.6338C155.996 60.3617 156.543 60.1917 158.755 59.7199C162.056 59.044 162.056 59.078 158.345 58.7039C157.632 58.6359 157.833 58.1598 158.55 58.13C159.097 58.096 159.366 57.892 160.22 57.012C161.582 55.622 162.193 54.47 162.569 52.6761L162.876 51.184L163.457 51.15C163.833 51.116 164.102 51.184 164.205 51.3201C164.41 51.6601 164.341 53.386 164 55.69C163.863 56.808 163.726 57.7559 163.726 57.7559C163.726 57.7899 163.487 57.8239 163.214 57.892C162.906 57.96 162.667 58.096 162.667 58.164C162.667 58.3001 163.312 58.3341 164.709 58.232C167.907 58.062 169.338 58.096 169.338 58.4021H169.347ZM161.787 56.808C161.753 56.774 161.377 57.114 160.972 57.5179L160.19 58.2618L160.903 58.2958C161.582 58.2958 161.617 58.2958 161.719 57.5859C161.787 57.2118 161.822 56.842 161.787 56.808Z" fill="#56CCF2"/>
<path d="M175.749 68.8083C175.07 69.0464 174.045 69.4842 173.502 69.7223L172.516 70.1984L173.062 71.0783C174.664 73.4843 174.595 76.3962 172.349 78.3644C167.89 82.2625 163.496 77.8543 168.638 71.9243L169.727 70.7042L168.774 69.7903C166.46 67.5543 166.425 65.0463 168.706 63.3842C170.239 62.2322 171.533 62.1982 172.349 63.1801C172.725 63.6562 172.793 63.856 172.725 64.5702C172.657 65.0803 172.452 65.6202 172.114 66.0623C171.503 66.9422 171.401 66.8402 171.875 65.8922C172.622 64.2641 172.148 63.3502 170.547 63.4522C170.342 63.4522 169.765 63.8263 169.287 64.2981C168.539 65.042 168.437 65.2461 168.403 65.8582C168.403 66.4321 168.505 66.6701 169.082 67.3163C169.458 67.7244 170.205 68.3662 170.718 68.7403L171.636 69.3822L172.657 68.9401C173.814 68.464 176.607 67.7881 176.842 67.9582C177.218 68.1622 176.979 68.3662 175.753 68.8041L175.749 68.8083ZM171.324 72.6384L170.914 71.7585L171.392 71.3844C171.632 71.2143 171.802 71.0103 171.734 70.9423C171.563 70.7723 170.303 71.8222 169.556 72.8042C163.496 80.3623 173.98 78.4962 171.328 72.6342L171.324 72.6384Z" fill="#56CCF2"/>
</g>
<defs>
<clipPath id="clip0_12_505">
<rect width="81" height="41" fill="white" transform="translate(96 44)"/>
</clipPath>
</defs>
</svg>
