<svg width="75" height="39" viewBox="0 0 75 39" fill="none" xmlns="http://www.w3.org/2000/svg">
<g clip-path="url(#clip0_12_537)">
<path d="M74.47 5.25692L74.894 4.18146C75.2472 3.28848 74.6781 2.29843 73.7204 2.13925L72.5664 1.949C71.5145 1.77429 70.4351 1.94124 69.4891 2.41879L63.2562 5.58305C56.0144 9.25981 49.3889 14.0237 43.6152 19.7038C43.1716 20.1425 43.5955 20.8802 44.2 20.7249C52.0894 18.7409 59.6216 15.5573 66.5297 11.2943L72.4761 7.62526C73.3789 7.06618 74.0775 6.23532 74.4622 5.25304L74.47 5.25692Z" fill="#00395E"/>
<path d="M65.9095 5.81989L47.5991 0.069865C46.2214 -0.361096 45.1694 1.30839 46.1703 2.33726L55.3079 11.7679L65.9095 5.81989Z" fill="#00395E"/>
<path d="M67.6875 8.92203L63.2836 27.4223C62.9539 28.8122 60.9639 28.8472 60.5832 27.4727L57.0859 14.8739L67.6875 8.92591V8.92203Z" fill="#00395E"/>
<path d="M48.0976 17.1219L41.4328 15.0292C40.9304 14.8701 40.5497 15.4796 40.9147 15.8562L44.2392 19.2884L48.0976 17.1219Z" fill="#00395E"/>
<path d="M48.7452 18.2479L47.1398 24.9802C47.0182 25.4849 46.296 25.5004 46.1547 24.9996L44.8829 20.4143L48.7413 18.2479H48.7452Z" fill="#00395E"/>
<path d="M43.4112 20.4182C43.4112 20.4182 15.3706 35.5445 8.06605 31.9299C0.761522 28.3114 14.6484 20.7482 14.6484 20.7482C14.6484 20.7482 -6.35853 29.414 1.94296 37.1752C11.3003 45.9264 43.4151 20.4182 43.4151 20.4182H43.4112Z" fill="#00395E"/>
</g>
<defs>
<clipPath id="clip0_12_537">
<rect width="75" height="39" fill="white"/>
</clipPath>
</defs>
</svg>
