<svg width="23" height="21" viewBox="0 0 23 21" fill="none" xmlns="http://www.w3.org/2000/svg">
<path d="M8.27461 9.46022C8.97671 8.67735 9.76208 7.99391 10.611 7.37275C11.7325 6.55221 12.9442 5.91116 14.2292 5.40093C14.7772 5.18324 15.3393 5.00688 15.9087 4.85251C15.9764 4.83419 16.1013 4.84256 16.0851 4.74157C16.0648 4.61388 15.9441 4.67982 15.8723 4.69238C13.7072 4.92996 10.7286 6.50144 10.701 6.42661C11.4723 6.11315 12.6647 5.26801 15.7021 4.47049C15.7609 4.45584 15.8213 4.4459 15.8785 4.42601C15.9311 4.40717 16.0227 4.4145 16.0133 4.33496C16.0008 4.23082 15.9103 4.27164 15.8478 4.28053C15.2555 4.36322 14.6684 4.47887 14.0897 4.62696C13.4599 4.78762 12.8344 4.96659 12.2124 5.1555C10.9144 5.5506 9.67933 6.10216 8.4703 6.71443C7.51057 7.20058 6.60966 7.7825 5.73737 8.41151C5.47558 8.12788 5.38346 8.11898 5.10449 8.36389C4.76255 8.66427 4.42321 8.96779 4.08283 9.27026C4.05993 9.28857 4.03651 9.30689 4.01361 9.3252L4.01725 9.32363C3.92409 9.3095 3.85227 9.34561 3.79034 9.41364C3.74558 9.46231 3.68469 9.49319 3.6368 9.43144C3.46713 9.21269 3.27821 9.24618 3.07731 9.37492C3.07523 9.33776 3.07366 9.30061 3.07158 9.26345L3.07314 9.26816C3.09084 9.24933 3.10853 9.23049 3.12623 9.21112L3.1231 9.21479C3.14184 9.19699 3.16058 9.1792 3.17932 9.16089L3.17671 9.16298C3.23813 9.15199 3.27248 9.11536 3.28185 9.05361L3.27872 9.0578C3.29746 9.03896 3.31568 9.02012 3.33441 9.00128L3.3292 8.99448C3.40259 9.01855 3.36199 9.16141 3.47181 9.13995C3.5072 9.13315 3.54728 9.0939 3.56393 9.05884C3.62691 8.92854 3.44007 8.97197 3.43746 8.88301C4.62047 7.70976 6.02779 6.862 7.47727 6.07757C10.433 4.47782 13.6078 3.73682 16.9481 3.65414C17.0074 3.65257 17.0662 3.63634 17.125 3.62692C17.5783 3.65257 18.0275 3.58506 18.4751 3.53482C18.7213 3.50709 18.9758 3.58192 19.2131 3.47098C19.4895 3.4558 19.7669 3.44848 20.0422 3.42388C20.5304 3.38045 21.0123 3.37992 21.4761 3.56936C21.5161 3.58558 21.5572 3.60024 21.5952 3.62065C21.9034 3.78496 22.1953 3.97492 22.175 4.37892C22.1568 4.74628 21.9216 4.96607 21.601 5.10474C21.4979 5.00793 21.4172 4.90065 21.3418 4.7761C21.2429 4.61336 21.1836 4.33862 20.8338 4.50974C20.1052 4.86611 19.3057 4.96031 18.5053 5.04508C18.1493 5.08276 17.7839 5.07177 17.4368 5.18533C17.3405 5.18742 17.2447 5.18952 17.1484 5.19213C15.5319 5.55792 14.1064 6.31776 12.8109 7.33664C11.6066 8.28435 10.6057 9.41992 9.78342 10.7151C9.66319 10.904 9.54921 11.0966 9.43211 11.2871C9.39307 11.1505 9.29627 11.0354 9.31448 10.8747C9.32593 10.7737 9.24579 10.7366 9.13701 10.7481C8.91529 10.7721 8.68473 10.7481 8.48644 10.8847C8.5083 10.8391 8.52443 10.7889 8.55358 10.7481C8.78518 10.4241 9.01626 10.0997 9.27857 9.7988C9.32802 9.74228 9.38631 9.67059 9.35508 9.58843C9.32229 9.5026 9.23225 9.52144 9.17396 9.5429C8.99596 9.60936 8.88302 9.59785 8.90124 9.36602C8.90436 9.3273 8.86482 9.28282 8.844 9.30218C8.71024 9.42568 8.45053 9.18339 8.37402 9.46702C8.37246 9.4733 8.31 9.46336 8.27565 9.46074L8.27461 9.46022ZM3.80752 8.86888C3.78722 8.85057 3.77056 8.82388 3.75495 8.82492C3.73933 8.82545 3.71435 8.85161 3.71175 8.86941C3.70706 8.9029 3.71955 8.94005 3.76431 8.92854C3.78097 8.92435 3.79034 8.89348 3.80752 8.86888Z" fill="#AB08F9"/>
<path d="M8.27462 9.46023C8.30897 9.46285 8.37143 9.47279 8.37299 9.46651C8.4495 9.18288 8.70973 9.42517 8.84297 9.30167C8.86379 9.28231 8.90333 9.32731 8.90021 9.36551C8.88199 9.59734 8.99493 9.60833 9.17293 9.54239C9.23122 9.52041 9.32126 9.5021 9.35405 9.58792C9.38528 9.67008 9.32699 9.74125 9.27754 9.79829C9.01523 10.0992 8.78415 10.4236 8.55255 10.7476C8.5234 10.7884 8.50727 10.8386 8.48541 10.8841C8.25068 11.1856 8.05915 11.5158 7.87803 11.8502C7.26441 12.9831 6.68253 14.1266 6.54357 15.4411C6.44781 16.3464 6.55139 17.2156 6.94381 18.0377C7.49602 19.1953 8.40473 20.0059 9.49822 20.6276C7.92643 21.1148 5.92632 20.1634 5.21381 18.5815C4.69543 17.4302 4.73862 16.2428 5.04777 15.0544C5.52816 13.2097 6.49361 11.6215 7.66881 10.15C7.7984 9.98773 7.94152 9.83649 8.07892 9.68002C8.25744 9.71508 8.18718 9.52826 8.26265 9.47175L8.2741 9.46076L8.27462 9.46023Z" fill="#AB08F9"/>
<path d="M9.49873 20.627C8.40524 20.0048 7.49705 19.1948 6.94432 18.0372C6.5519 17.2151 6.44832 16.3459 6.54408 15.4406C6.68304 14.126 7.26492 12.9821 7.87854 11.8496C8.05966 11.5152 8.25119 11.185 8.48592 10.8836C8.68421 10.7475 8.91477 10.7716 9.13649 10.747C9.24579 10.735 9.32541 10.7721 9.31396 10.8737C9.29575 11.0343 9.39255 11.1489 9.43159 11.286C9.18801 11.8329 8.90228 12.3599 8.69358 12.9235C8.35112 13.8481 8.12108 14.7927 8.1268 15.7854C8.13669 17.4867 9.16251 18.7683 10.8129 19.1796C11.1809 19.2712 11.5556 19.3125 11.9709 19.3915C11.2313 20.0357 10.4548 20.5114 9.49821 20.627H9.49873Z" fill="#AB08F9"/>
<path d="M11.6664 9.89612C11.3385 10.5874 11.0918 11.3111 10.8659 12.0391C10.7493 12.4148 10.729 12.823 10.6853 13.2186C10.6088 13.9209 10.5573 14.6216 10.7431 15.3202C11.0991 16.6609 11.9865 17.404 13.31 17.6725C13.3907 17.6887 13.5072 17.6604 13.5333 17.7572C13.553 17.8326 13.4531 17.8823 13.3995 17.9357C12.4606 18.8666 10.805 18.9273 9.81355 18.0477C9.48514 17.7567 9.2702 17.371 9.12915 16.9519C8.9064 16.2894 8.85435 15.608 8.92877 14.9152C9.02506 14.8932 9.00528 14.8147 9.00945 14.7482C9.01361 14.688 9.00684 14.6179 9.0948 14.6158C9.15309 14.6142 9.18535 14.6551 9.20877 14.7058C9.22855 14.7482 9.19785 14.8162 9.29309 14.8393C9.27852 14.6347 9.53198 14.664 9.5783 14.4667C9.68916 13.9894 9.78128 13.5111 9.96709 13.0454C10.1643 12.5503 10.3392 12.0406 10.5729 11.5644C10.8519 10.9951 11.2089 10.4639 11.5316 9.91601C11.5696 9.85164 11.6196 9.88304 11.6674 9.89665L11.6664 9.89612Z" fill="#FD9535"/>
<path d="M3.0768 9.37388C3.2777 9.24515 3.46663 9.21165 3.6363 9.4304C3.68418 9.49215 3.74507 9.46127 3.78983 9.4126C3.85176 9.3451 3.92411 9.30846 4.01675 9.32259C3.72165 9.66274 3.41978 9.99714 3.13248 10.3436C2.77857 10.7706 2.44756 11.2227 2.20919 11.7204C1.61743 12.958 1.4285 14.2794 1.44255 15.6483C1.4514 16.5029 1.65074 17.281 2.08637 18.0037C2.34504 18.4323 2.60005 18.8661 2.97739 19.2068L2.97584 19.2058C2.99041 19.2267 3.00445 19.2481 3.01903 19.2691C3.05546 19.346 3.15279 19.3784 3.17725 19.5522C1.95729 18.572 1.20679 17.3663 0.90076 15.9011C0.366769 13.3421 1.24218 11.2133 2.95866 9.3608C2.9675 9.36865 2.97583 9.37649 2.98468 9.38487C2.98468 9.41941 2.98676 9.46179 3.03152 9.45133C3.05181 9.44662 3.06275 9.40057 3.07784 9.37388L3.07732 9.3744L3.0768 9.37388Z" fill="#AB08F9"/>
<path d="M8.488 4.97339C7.94776 5.22929 7.40128 5.47263 6.86885 5.7437C5.30227 6.53965 3.87101 7.52817 2.68488 8.84062C1.33377 10.3352 0.437015 12.0506 0.247048 14.0936C0.15909 13.856 0.158056 13.2019 0.215307 12.7764C0.458882 10.9689 1.30983 9.45499 2.44651 8.07817C2.62242 7.86518 2.78221 7.63545 3.02162 7.48369C3.03775 7.46695 3.0544 7.4502 3.07054 7.43345C3.08927 7.41566 3.10801 7.39735 3.12675 7.37955C3.24698 7.36961 3.32401 7.2796 3.41665 7.21995C4.0386 6.81962 4.66107 6.41876 5.32934 6.10007C6.2136 5.67829 7.11034 5.28267 8.05758 5.02311C8.19186 4.98647 8.33134 4.86559 8.48748 4.97287L8.488 4.97339Z" fill="#FD9535"/>
<path d="M2.97836 19.2068C2.60103 18.8661 2.34601 18.4323 2.08735 18.0037C1.6512 17.281 1.45238 16.5029 1.44353 15.6483C1.42948 14.2794 1.6184 12.958 2.21017 11.7204C2.44802 11.2232 2.77955 10.7706 3.13346 10.3436C3.42075 9.99714 3.72262 9.66222 4.01772 9.3226L4.01409 9.32417C4.03699 9.30585 4.0604 9.28754 4.0833 9.26922C4.42368 8.96675 4.76302 8.66323 5.10497 8.36285C5.38393 8.11795 5.47605 8.12684 5.73784 8.41047C5.28608 8.82022 4.79842 9.18811 4.3654 9.61931C3.76114 10.2211 3.22507 10.8752 2.78788 11.6115C1.98377 12.9669 1.6283 14.4384 1.77715 16.0005C1.86719 16.944 2.18103 17.8436 2.68275 18.6636C2.79048 18.8394 2.92944 18.9985 2.97836 19.2068Z" fill="#AB08F9"/>
<path d="M11.6664 9.89611C11.6185 9.88251 11.5686 9.85111 11.5306 9.91547C11.2079 10.4634 10.8514 10.9945 10.5719 11.5639C10.3382 12.0406 10.1633 12.5503 9.96606 13.0448C9.78026 13.5106 9.68814 13.9889 9.57728 14.4661C9.53148 14.664 9.27802 14.6346 9.29207 14.8387C9.19683 14.8157 9.22754 14.7482 9.20776 14.7053C9.18434 14.6545 9.15258 14.6137 9.09377 14.6153C9.00634 14.6174 9.01259 14.688 9.00842 14.7477C9.00426 14.8147 9.02351 14.8932 8.92775 14.9146C8.97511 13.8706 9.2827 12.8957 9.74851 11.9736C10.2617 10.9589 10.9112 10.0405 11.7075 9.22209C11.9537 8.96934 12.2389 8.7642 12.4736 8.50359C12.2046 8.96777 11.935 9.43142 11.6659 9.89559L11.6664 9.89611Z" fill="#FD9535"/>
<path d="M8.488 4.97339C8.33186 4.86559 8.19238 4.98647 8.0581 5.02363C7.11087 5.28318 6.21412 5.6788 5.32986 6.10059C4.66159 6.41928 4.03912 6.82013 3.41717 7.22046C3.32453 7.28012 3.24698 7.37013 3.12727 7.38007C3.63732 6.83583 4.25095 6.42975 4.88799 6.05872C6.55346 5.08851 8.35945 4.48985 10.2185 4.0351C11.0861 3.82316 11.9626 3.6557 12.8458 3.52121C12.9369 3.50761 13.0311 3.46941 13.1508 3.56308C12.8177 3.64419 12.5111 3.71798 12.2051 3.79333C11.0679 4.0733 9.95413 4.42967 8.85804 4.84308C8.81016 4.8614 8.75812 4.86873 8.70815 4.88129C8.6889 4.89123 8.66911 4.90169 8.64986 4.91164C8.59625 4.93257 8.54213 4.9535 8.48852 4.97391L8.488 4.97339Z" fill="#FD9535"/>
<path d="M17.1323 2.66928C17.1183 1.87908 17.1058 1.08889 17.0876 0.298699C17.0844 0.163686 17.1282 0.122868 17.264 0.115542C17.786 0.0878069 18.015 0.227006 18.1935 0.712634C18.37 1.19251 18.5423 1.67447 18.7166 2.15539C18.6875 2.40344 18.484 2.32651 18.3377 2.36785C17.939 2.48036 17.4758 2.33436 17.1323 2.66928Z" fill="#AB08F9"/>
<path d="M18.6905 6.62968C18.5599 7.14356 18.3736 7.63913 18.1794 8.12999C18.0556 8.44345 17.5892 8.61353 17.265 8.51724C17.1859 8.49369 17.1786 8.44607 17.1796 8.3817C17.1828 8.22524 17.1854 8.06877 17.1885 7.91282C17.2535 7.83799 17.2286 7.74693 17.2296 7.66216C17.2332 7.2791 17.2442 6.89604 17.2312 6.5135C17.2239 6.30366 17.2775 6.21522 17.5023 6.23249C17.7605 6.25185 18.0212 6.23615 18.2809 6.2372C18.4105 6.23772 18.5625 6.20056 18.6645 6.25499C18.8212 6.33872 18.6197 6.50461 18.6905 6.62915V6.62968Z" fill="#AB08F9"/>
<path d="M17.1323 2.66926C17.4758 2.33486 17.9385 2.48034 18.3376 2.36783C18.4844 2.32649 18.6874 2.40342 18.7165 2.15537C18.882 2.59338 19.047 3.03191 19.2125 3.46992C18.9752 3.58086 18.7207 3.50602 18.4745 3.53376C18.0269 3.584 17.5783 3.6515 17.1245 3.62586C17.1271 3.30717 17.1297 2.98795 17.1317 2.66926H17.1323Z" fill="#AB08F9"/>
<path d="M18.6905 6.62966C18.6203 6.50512 18.8217 6.33923 18.6645 6.2555C18.5625 6.20107 18.4105 6.23823 18.2809 6.23771C18.0212 6.23666 17.7605 6.25288 17.5023 6.233C17.2775 6.21573 17.2239 6.30417 17.2312 6.51401C17.2447 6.89655 17.2338 7.27961 17.2296 7.66267C17.2286 7.74744 17.2536 7.83798 17.1885 7.91333C17.1859 7.52138 17.1828 7.12942 17.1802 6.73746C17.1745 6.33818 17.1682 5.9389 17.1625 5.53909C17.1609 5.46688 17.1594 5.39414 17.1583 5.32192V5.31878C17.1552 5.27587 17.1515 5.23348 17.1484 5.19057C17.2447 5.18848 17.3405 5.18638 17.4368 5.18377C18.0176 5.23871 18.6005 5.22511 19.1819 5.24342C19.0382 5.71231 18.8842 6.17805 18.6905 6.62914V6.62966Z" fill="#AB08F9"/>
<path d="M19.1819 5.24393C18.6 5.22561 18.0171 5.23922 17.4368 5.18427C17.7839 5.07071 18.1493 5.0817 18.5053 5.04402C19.3052 4.95925 20.1046 4.86505 20.8338 4.50868C21.1835 4.33756 21.2429 4.6123 21.3418 4.77504C21.4177 4.90012 21.4979 5.00687 21.6009 5.10368C21.1778 5.35591 20.7115 5.36376 20.2425 5.33498C19.8886 5.313 19.5358 5.2748 19.1824 5.24445L19.1819 5.24393Z" fill="#AB08F9"/>
<path d="M17.1624 5.53908C17.1682 5.93836 17.1744 6.33817 17.1801 6.73745C17.1474 6.33817 17.1411 5.93889 17.1624 5.53908Z" fill="#AB08F9"/>
<path d="M3.43695 8.88198C3.43955 8.97042 3.62639 8.92751 3.56342 9.05782C3.54676 9.09235 3.50669 9.1316 3.47129 9.13893C3.36148 9.16091 3.40259 9.01804 3.32869 8.99345C3.34326 8.93536 3.38438 8.90292 3.43695 8.88198Z" fill="#AB08F9"/>
<path d="M8.26318 9.47068C8.18771 9.5272 8.25797 9.71402 8.07945 9.67895C8.12265 9.59313 8.18563 9.5251 8.26318 9.47068Z" fill="#AB08F9"/>
<path d="M3.0716 9.26241C3.07368 9.29956 3.07525 9.33672 3.07733 9.37387L3.07785 9.37335C3.04662 9.37701 3.01591 9.38067 2.98469 9.38486C2.97636 9.37701 2.96751 9.36916 2.95866 9.36079C2.98469 9.31474 3.0081 9.26607 3.07108 9.26241H3.0716Z" fill="#AB08F9"/>
<path d="M3.28131 9.05254C3.27194 9.11377 3.23759 9.15092 3.17618 9.16191C3.1767 9.09231 3.21834 9.06196 3.28131 9.05254Z" fill="#AB08F9"/>
<path d="M17.1583 5.31878V5.32192L17.149 5.31983L17.1583 5.31878Z" fill="#AB08F9"/>
<path d="M8.64931 4.91111C8.66856 4.90117 8.68835 4.8907 8.7076 4.88076C8.68835 4.8907 8.66856 4.90117 8.64931 4.91111Z" fill="#FD9535"/>
<path d="M3.12624 9.21007C3.10855 9.22891 3.09085 9.24775 3.07316 9.26711C3.06691 9.22577 3.08669 9.2085 3.12624 9.21007Z" fill="#AB08F9"/>
<path d="M3.17935 9.15983C3.16061 9.17762 3.14187 9.19541 3.12314 9.21373C3.12158 9.17396 3.13719 9.15302 3.17935 9.15983Z" fill="#AB08F9"/>
<path d="M3.33388 9.00025C3.31514 9.01908 3.29692 9.03792 3.27818 9.05676C3.27506 9.01647 3.29484 8.9992 3.33388 9.00025Z" fill="#AB08F9"/>
<path d="M3.07054 7.43346C3.05441 7.4502 3.03776 7.46695 3.02162 7.4837C3.03776 7.46695 3.05441 7.4502 3.07054 7.43346Z" fill="#F4613B"/>
<path d="M3.01955 19.2691C3.00498 19.2481 2.99092 19.2267 2.97635 19.2058C3.01226 19.212 3.02528 19.234 3.01955 19.2691Z" fill="#AB08F9"/>
<path d="M3.80754 8.86887C3.79036 8.89347 3.78099 8.92434 3.76434 8.92853C3.71958 8.94004 3.70708 8.90289 3.71177 8.8694C3.71437 8.85161 3.73936 8.82544 3.75497 8.82492C3.77058 8.82439 3.78724 8.85056 3.80754 8.86887Z" fill="#AB08F9"/>
<path d="M4.08281 9.26921C4.05991 9.28753 4.0365 9.30585 4.0136 9.32416C4.0365 9.30585 4.05991 9.28753 4.08281 9.26921Z" fill="#AB08F9"/>
<path d="M2.98465 9.38436C3.01588 9.38069 3.04659 9.37703 3.07781 9.37284C3.06272 9.40005 3.05178 9.44558 3.03149 9.45029C2.98673 9.46076 2.98465 9.41837 2.98465 9.38383V9.38436Z" fill="#AB08F9"/>
</svg>
